<svg width="300" height="300" viewBox="0 0 300 300" fill="none" xmlns="http://www.w3.org/2000/svg">
<path d="M146.496 245.44C152.768 245.44 157.808 247.456 162.512 251.712L159.768 254.96C155.68 251.208 151.76 249.416 146.328 249.416C141.008 249.416 137.592 252.216 137.592 256.08V256.192C137.592 259.832 139.552 261.848 147.784 263.64C156.8 265.6 160.944 268.512 160.944 274.952V275.064C160.944 281.168 155.512 285.76 148.064 285.76C142.296 285.76 138.32 284.136 134.288 280.944L136.864 277.528C140.504 280.496 144.144 281.784 148.176 281.784C153.328 281.784 156.52 279.04 156.52 275.456V275.344C156.52 271.648 154.56 269.52 145.88 267.728C137.144 265.768 133.112 262.632 133.112 256.64V256.528C133.112 249.808 138.712 245.44 146.496 245.44Z" fill="#F9EEE2"/>
<path d="M130.052 246.366L98.4278 276.005L94.5989 274.42L93.2107 231.117L97.6088 232.938L97.8846 244.264L117.599 252.424L125.86 244.631L130.052 246.366ZM114.472 255.433L97.9662 248.601L98.5379 270.475L114.472 255.433Z" fill="#F9EEE2"/>
<path d="M88.6369 226.468L60.9082 254.176L40.9831 234.266L43.8749 231.376L60.6705 248.16L70.5736 238.264L55.5605 223.262L58.4126 220.412L73.4257 235.414L85.5075 223.341L88.6369 226.468Z" fill="#F9EEE2"/>
<path d="M63.5385 197.994L27.3186 212.985L16.4681 186.809L20.1936 185.267L29.35 207.357L41.7165 202.238L33.5251 182.476L37.2505 180.934L45.442 200.696L58.119 195.449L48.8553 173.101L52.5808 171.559L63.5385 197.994Z" fill="#F9EEE2"/>
<path d="M50.758 130.174L21.1199 98.5727L22.7067 94.7445L66.0258 93.341L64.2031 97.7382L52.8723 98.0181L44.7023 117.728L52.4949 125.984L50.758 130.174ZM41.6934 114.604L48.5339 98.1012L26.6522 98.6807L41.6934 114.604Z" fill="#F9EEE2"/>
<path d="M67.675 91.8142L39.9463 64.1057L42.8776 61.1766L82.5692 65.9266L60.3467 43.7202L63.3968 40.6723L91.1255 68.3808L88.6299 70.8745L47.9876 66.0453L70.7251 88.7663L67.675 91.8142Z" fill="#F9EEE2"/>
<path d="M97.0433 64.6317L82.0328 28.4195L94.6063 23.2151C105.99 18.5034 117.093 23.0595 121.317 33.2507L121.36 33.3541C125.584 43.5453 121 54.7156 109.617 59.4274L97.0433 64.6317ZM96.1717 26.9916L87.6858 30.5039L99.5656 59.1633L108.051 55.6509C117.21 51.8601 120.505 43.2839 117.16 35.2138L117.117 35.1103C113.793 27.0919 105.33 23.2008 96.1717 26.9916Z" fill="#F9EEE2"/>
<path d="M187.524 60.0446C181.729 57.6459 177.844 53.856 175.128 48.1254L178.907 46.1743C181.247 51.2038 184.183 54.3584 189.202 56.4359C194.118 58.4705 198.346 57.1903 199.826 53.6208L199.869 53.5174C201.263 50.1548 200.223 47.5429 193.304 42.7392C185.723 37.4804 183.01 33.2055 185.476 27.2564L185.518 27.1529C187.856 21.5141 194.633 19.3496 201.515 22.198C206.845 24.404 209.896 27.4248 212.4 31.9155L208.711 34.086C206.485 29.9521 203.615 27.3702 199.889 25.8281C195.129 23.8578 191.129 25.1719 189.756 28.4827L189.713 28.5862C188.298 32.0005 189.294 34.7159 196.628 39.6909C203.949 44.8426 206.474 49.2816 204.18 54.8169L204.137 54.9203C201.564 61.1281 194.717 63.0215 187.524 60.0446Z" fill="#F9EEE2"/>
<path d="M216.968 80.223C210.115 73.3751 209.64 64.5084 217.483 56.6708L233.606 40.5603L236.735 43.6874L220.811 59.6C214.79 65.6167 214.592 72.0688 219.939 77.4126C225.049 82.5189 231.387 82.6772 237.448 76.6209L253.57 60.5104L256.7 63.6375L240.815 79.5105C232.695 87.6252 223.901 87.1502 216.968 80.223Z" fill="#F9EEE2"/>
<path d="M233.597 99.3922L269.817 84.4003L275.435 97.954C278.823 106.128 276.707 113.307 269.566 116.262L269.463 116.305C261.65 119.539 254.912 114.691 251.717 106.983L248.071 98.189L235.291 103.479L233.597 99.3922ZM251.797 96.647L255.507 105.597C257.994 111.597 262.832 114.201 267.592 112.231L267.696 112.188C272.87 110.046 273.952 105.053 271.529 99.207L267.734 90.0505L251.797 96.647Z" fill="#F9EEE2"/>
<path d="M246 135.661H285.2V150.333C285.2 159.181 280.496 165.005 272.768 165.005H272.656C264.2 165.005 259.832 157.949 259.832 149.605V140.085H246V135.661ZM263.864 140.085V149.773C263.864 156.269 267.336 160.525 272.488 160.525H272.6C278.2 160.525 281.112 156.325 281.112 149.997V140.085H263.864Z" fill="#F9EEE2"/>
<path d="M237.871 185.876C242.439 174.857 254.146 171.036 264.133 175.169L264.236 175.212C274.223 179.346 279.858 190.466 275.29 201.485C270.723 212.504 259.015 216.325 249.029 212.191L248.926 212.149C238.939 208.015 233.304 196.895 237.871 185.876ZM241.606 187.543C238.175 195.82 242.353 204.458 250.58 207.864L250.684 207.907C258.911 211.312 268.125 208.095 271.556 199.818C274.987 191.541 270.808 182.902 262.581 179.497L262.478 179.454C254.251 176.049 245.037 179.266 241.606 187.543Z" fill="#F9EEE2"/>
<path d="M227.622 207.337L255.351 235.046L243.427 246.96C239.981 250.404 236.257 252.067 232.772 252.067C229.999 252.067 227.384 250.958 225.166 248.742L225.087 248.662C220.492 244.071 220.927 238.173 224.532 233.067L204.686 230.256L208.529 226.417L227.345 229.148L235.267 221.231L224.493 210.464L227.622 207.337ZM238.08 224.042L229.563 232.552C225.443 236.669 224.572 241.815 228.137 245.377L228.216 245.456C231.662 248.9 236.297 248.306 240.773 243.833L249.33 235.283L238.08 224.042Z" fill="#F9EEE2"/>
<path d="M188.183 237.624L201.628 270.06L213.84 265.006L215.405 268.782L186.895 280.583L185.329 276.806L197.541 271.752L184.096 239.316L188.183 237.624Z" fill="#F9EEE2"/>
</svg>
