<svg width="701" height="714" viewBox="0 0 701 714" fill="none" xmlns="http://www.w3.org/2000/svg">
<path d="M363.216 630.897V713.051H345.142V647.328H304.182V630.897H363.216Z" fill="url(#paint0_linear_336_1133)" fill-opacity="0.05"/>
<path d="M250.35 616.57L222.252 693.769L205.268 687.587L233.366 610.388L250.35 616.57Z" fill="url(#paint1_linear_336_1133)" fill-opacity="0.05"/>
<path d="M165.151 569.339L137.41 654.071L122.126 641.246L142.865 583.118L89.2206 613.635L74.2964 601.112L152.924 559.079L165.151 569.339Z" fill="url(#paint2_linear_336_1133)" fill-opacity="0.05"/>
<path d="M111.901 515.834L40.7542 556.911L9.7705 503.245L23.695 495.206L45.7005 533.321L60.1332 524.988L40.7684 491.447L54.693 483.408L74.0578 516.948L88.9987 508.322L66.6998 469.7L80.6244 461.66L111.901 515.834Z" fill="url(#paint3_linear_336_1133)" fill-opacity="0.05"/>
<path d="M59.7863 338.764L-26.568 352.019L-23.2053 332.949L34.5344 325.85L-17.2818 298.003L-14.5917 282.746L43.6238 274.301L-8.20581 247.882L-4.92466 229.274L71.6881 271.265L68.9572 286.753L12.8018 295.68L62.5172 323.276L59.7863 338.764Z" fill="url(#paint4_linear_336_1133)" fill-opacity="0.05"/>
<path d="M94.6142 220.391L23.4669 179.314L32.5038 163.662L103.651 204.738L94.6142 220.391Z" fill="url(#paint5_linear_336_1133)" fill-opacity="0.05"/>
<path d="M153.217 146.192L111.121 96.0246L91.9717 112.093L81.2593 99.3267L133.404 55.5719L144.117 68.3384L124.967 84.407L167.062 134.574L153.217 146.192Z" fill="url(#paint6_linear_336_1133)" fill-opacity="0.05"/>
<path d="M212.906 103.342L184.808 26.1431L201.792 19.9615L212.911 50.5103L244.232 39.1105L233.113 8.56159L250.097 2.37997L278.195 79.5793L261.211 85.7609L249.931 54.7709L218.611 66.1708L229.89 97.1608L212.906 103.342Z" fill="url(#paint7_linear_336_1133)" fill-opacity="0.05"/>
<path d="M436.404 94.6178C412.362 85.8672 401.92 63.0829 410.27 40.1436L410.35 39.9231C418.338 17.9764 441.975 6.22175 465.355 14.7315C479.141 19.7491 486.378 26.6297 491.83 36.3574L476.436 45.3671C472.397 38.2769 467.927 33.4025 459.104 30.1912C446.752 25.6955 432.963 33.0412 428.186 46.1651L428.106 46.3857C422.968 60.5021 428.9 74.4012 442.575 79.3786C448.861 81.6666 454.827 82.0895 460.252 80.567L464.266 69.5385L447.172 63.3168L452.511 48.6489L486.037 60.8516L473.835 94.3782C463.445 98.2154 450.52 99.7558 436.404 94.6178Z" fill="url(#paint8_linear_336_1133)" fill-opacity="0.05"/>
<path d="M516.26 141.384C496.841 125.089 495.051 98.9216 510.064 81.0306L510.214 80.8508C525.227 62.9597 551.638 60.1491 571.058 76.444C590.477 92.7389 592.267 118.907 577.255 136.798L577.104 136.978C562.091 154.869 535.68 157.679 516.26 141.384ZM527.152 128.769C538.301 138.123 553.425 135.8 562.478 125.012L562.629 124.832C571.682 114.043 571.314 98.4141 560.166 89.0596C549.018 79.7052 533.893 82.0281 524.84 92.8167L524.689 92.9965C515.636 103.785 516.004 119.414 527.152 128.769Z" fill="url(#paint9_linear_336_1133)" fill-opacity="0.05"/>
<path d="M577.977 214.885C565.302 192.931 572.57 167.729 592.796 156.052L593 155.935C613.226 144.257 639.006 150.649 651.681 172.603C664.356 194.557 657.088 219.759 636.862 231.437L636.658 231.554C616.432 243.231 590.652 236.839 577.977 214.885ZM592.527 206.756C599.804 219.359 614.811 222.349 627.007 215.307L627.211 215.19C639.407 208.148 644.407 193.336 637.131 180.733C629.854 168.129 614.847 165.139 602.651 172.181L602.447 172.298C590.251 179.34 585.251 194.152 592.527 206.756Z" fill="url(#paint10_linear_336_1133)" fill-opacity="0.05"/>
<path d="M605.978 269.413L686.883 255.147L692.447 286.701C696.931 312.128 682.576 332.774 659.807 336.788L659.575 336.829C636.806 340.844 616.025 326.394 611.541 300.967L605.978 269.413ZM676.381 289.533L673.956 275.78L625.182 284.38L627.607 298.134C630.154 312.581 641.731 320.789 656.063 318.262L656.294 318.221C670.626 315.694 678.929 303.981 676.381 289.533Z" fill="url(#paint11_linear_336_1133)" fill-opacity="0.05"/>
<path d="M574.531 497.367C586.619 476.429 611.758 470.209 632.188 482.004L632.391 482.121C652.617 493.799 660.382 518.61 647.766 540.462C640.078 553.777 630.853 559.427 620.593 562.177L614.858 545.585C623.066 542.87 629.225 539.244 633.392 532.028C640.316 520.034 635.343 505.644 623.147 498.602L622.943 498.485C610.747 491.443 595.712 494.011 588.67 506.208C583.976 514.339 584.251 521.138 586.207 529.721L570.394 533.872C566.793 522.036 566.55 511.19 574.531 497.367Z" fill="url(#paint12_linear_336_1133)" fill-opacity="0.05"/>
<path d="M550.594 537.926L576.807 623.941L564.041 634.653L483.885 593.902L498.359 581.756L515.957 591.043L542.569 568.713L536.479 549.77L550.594 537.926ZM547.884 585.089L531.162 599.121L556.648 612.514L547.884 585.089Z" fill="url(#paint13_linear_336_1133)" fill-opacity="0.05"/>
<path d="M464.282 603.016L492.381 680.215L460.571 691.793C451.724 695.013 444.001 694.827 437.442 691.344C431.86 688.38 427.745 683.258 425.055 675.869L424.975 675.648C420.439 663.186 423.653 653.149 431.175 646.29L404.142 624.905L422.035 618.393L445.937 637.669L457.965 633.292L448.974 608.588L464.282 603.016ZM463.424 648.29L447.917 653.935C440.362 656.684 437.753 662.505 440.161 669.122L440.241 669.343C442.931 676.732 448.729 678.743 456.284 675.993L471.493 670.458L463.424 648.29Z" fill="url(#paint14_linear_336_1133)" fill-opacity="0.05"/>
<defs>
<linearGradient id="paint0_linear_336_1133" x1="333.699" y1="713.051" x2="333.699" y2="630.897" gradientUnits="userSpaceOnUse">
<stop stop-color="#938D85"/>
<stop offset="1" stop-color="#BD7E5C"/>
</linearGradient>
<linearGradient id="paint1_linear_336_1133" x1="213.76" y1="690.678" x2="241.858" y2="613.479" gradientUnits="userSpaceOnUse">
<stop stop-color="#938D85"/>
<stop offset="1" stop-color="#BD7E5C"/>
</linearGradient>
<linearGradient id="paint2_linear_336_1133" x1="105.853" y1="627.592" x2="159.038" y2="564.209" gradientUnits="userSpaceOnUse">
<stop stop-color="#938D85"/>
<stop offset="1" stop-color="#BD7E5C"/>
</linearGradient>
<linearGradient id="paint3_linear_336_1133" x1="25.1157" y1="529.824" x2="96.2629" y2="488.747" gradientUnits="userSpaceOnUse">
<stop stop-color="#938D85"/>
<stop offset="1" stop-color="#BD7E5C"/>
</linearGradient>
<linearGradient id="paint4_linear_336_1133" x1="-15.9775" y1="290.606" x2="65.7372" y2="305.014" gradientUnits="userSpaceOnUse">
<stop stop-color="#938D85"/>
<stop offset="1" stop-color="#BD7E5C"/>
</linearGradient>
<linearGradient id="paint5_linear_336_1133" x1="27.9854" y1="171.488" x2="99.1326" y2="212.565" gradientUnits="userSpaceOnUse">
<stop stop-color="#938D85"/>
<stop offset="1" stop-color="#BD7E5C"/>
</linearGradient>
<linearGradient id="paint6_linear_336_1133" x1="107.332" y1="77.4493" x2="160.139" y2="140.383" gradientUnits="userSpaceOnUse">
<stop stop-color="#938D85"/>
<stop offset="1" stop-color="#BD7E5C"/>
</linearGradient>
<linearGradient id="paint7_linear_336_1133" x1="217.452" y1="14.2615" x2="245.55" y2="91.4608" gradientUnits="userSpaceOnUse">
<stop stop-color="#938D85"/>
<stop offset="1" stop-color="#BD7E5C"/>
</linearGradient>
<linearGradient id="paint8_linear_336_1133" x1="461.661" y1="13.3868" x2="432.599" y2="93.2329" gradientUnits="userSpaceOnUse">
<stop stop-color="#938D85"/>
<stop offset="1" stop-color="#BD7E5C"/>
</linearGradient>
<linearGradient id="paint9_linear_336_1133" x1="570.968" y1="76.3686" x2="516.35" y2="141.46" gradientUnits="userSpaceOnUse">
<stop stop-color="#938D85"/>
<stop offset="1" stop-color="#BD7E5C"/>
</linearGradient>
<linearGradient id="paint10_linear_336_1133" x1="651.622" y1="172.502" x2="578.036" y2="214.987" gradientUnits="userSpaceOnUse">
<stop stop-color="#938D85"/>
<stop offset="1" stop-color="#BD7E5C"/>
</linearGradient>
<linearGradient id="paint11_linear_336_1133" x1="693.456" y1="292.422" x2="612.55" y2="306.688" gradientUnits="userSpaceOnUse">
<stop stop-color="#938D85"/>
<stop offset="1" stop-color="#BD7E5C"/>
</linearGradient>
<linearGradient id="paint12_linear_336_1133" x1="650.23" y1="536.193" x2="576.644" y2="493.708" gradientUnits="userSpaceOnUse">
<stop stop-color="#938D85"/>
<stop offset="1" stop-color="#BD7E5C"/>
</linearGradient>
<linearGradient id="paint13_linear_336_1133" x1="570.424" y1="629.297" x2="517.239" y2="565.914" gradientUnits="userSpaceOnUse">
<stop stop-color="#938D85"/>
<stop offset="1" stop-color="#BD7E5C"/>
</linearGradient>
<linearGradient id="paint14_linear_336_1133" x1="462.31" y1="691.16" x2="434.212" y2="613.961" gradientUnits="userSpaceOnUse">
<stop stop-color="#938D85"/>
<stop offset="1" stop-color="#BD7E5C"/>
</linearGradient>
</defs>
</svg>
