<svg width="36" height="36" viewBox="0 0 36 36" fill="none" xmlns="http://www.w3.org/2000/svg">
<rect width="36" height="36" rx="18" fill="#6C5E4F"/>
<path fill-rule="evenodd" clip-rule="evenodd" d="M21.8406 15.4985C23.0029 16.3289 24.4269 16.8171 25.9645 16.8171V13.8592C25.6732 13.8592 25.3834 13.8289 25.0988 13.7685V16.0966C23.5611 16.0966 22.1378 15.6077 20.9749 14.778V20.8134C20.9749 23.8326 18.5257 26.2803 15.5051 26.2803C14.3783 26.2803 13.3303 25.9395 12.4601 25.3555C13.4535 26.3702 14.8384 27 16.3709 27C19.3915 27 21.8406 24.5524 21.8406 21.5332V15.4985ZM22.9092 12.5148C22.3156 11.8665 21.9255 11.028 21.8406 10.1011V9.72052H21.0198C21.2263 10.8982 21.9313 11.9049 22.9092 12.5148ZM14.3709 23.0391C14.039 22.604 13.8598 22.0723 13.8606 21.5251C13.8606 20.1438 14.9808 19.0244 16.3628 19.0244C16.6201 19.0244 16.876 19.0634 17.1216 19.1416V16.118C16.8347 16.0789 16.5457 16.062 16.2558 16.0679V18.4211C16.0103 18.3429 15.7544 18.3039 15.4962 18.3039C14.1142 18.3039 12.994 19.4233 12.994 20.8046C12.9948 21.7817 13.5545 22.6276 14.3709 23.0391Z" fill="white" fill-opacity="0.8"/>
<path fill-rule="evenodd" clip-rule="evenodd" d="M20.975 14.778C22.1372 15.6084 23.5613 16.0966 25.0989 16.0966V13.7685C24.2405 13.5856 23.4809 13.1372 22.9094 12.514C21.9315 11.9041 21.2272 10.8982 21.0207 9.72052H18.8651V21.5332C18.86 22.91 17.742 24.0251 16.3629 24.0251C15.5502 24.0251 14.8282 23.6379 14.371 23.0384C13.5546 22.6269 12.9949 21.781 12.9949 20.8046C12.9949 19.4233 14.1151 18.3039 15.4971 18.3039C15.7619 18.3039 16.017 18.3451 16.2567 18.4211V16.0686C13.2892 16.1298 10.9027 18.5531 10.9027 21.5339C10.9027 23.0221 11.4971 24.371 12.4617 25.3562C13.3319 25.9403 14.3799 26.281 15.5067 26.281C18.5274 26.281 20.9765 23.8333 20.9765 20.8142L20.975 14.778Z" fill="white"/>
<path fill-rule="evenodd" clip-rule="evenodd" d="M25.099 13.7692V13.1394C24.3247 13.1409 23.5666 12.924 22.9095 12.514C23.4906 13.1504 24.2561 13.5892 25.099 13.7692ZM21.0201 9.7205C21.0002 9.60767 20.9855 9.49484 20.9752 9.38053V9H17.9988V20.8134C17.9943 22.1903 16.8756 23.3053 15.4965 23.3053C15.0917 23.3053 14.7097 23.2094 14.3712 23.0383C14.8284 23.6379 15.5504 24.0251 16.3631 24.0251C17.7421 24.0251 18.8601 22.91 18.8653 21.5332V9.7205H21.0201ZM16.2561 16.0686V15.3982C16.0076 15.3643 15.7569 15.3473 15.5054 15.3473C12.484 15.3473 10.0356 17.795 10.0356 20.8142C10.0356 22.7072 10.998 24.3754 12.4604 25.3562C11.4958 24.3709 10.9014 23.0221 10.9014 21.5339C10.9014 18.5531 13.2886 16.1298 16.2561 16.0686Z" fill="white" fill-opacity="0.5"/>
</svg>
