<svg width="36" height="36" viewBox="0 0 36 36" fill="none" xmlns="http://www.w3.org/2000/svg">
<rect width="36" height="36" rx="18" fill="#6C5E4F"/>
<path d="M27.4453 16.6653C27.4453 12.4387 23.208 9 17.9996 9C12.7911 9 8.55386 12.4387 8.55386 16.6653C8.55386 20.4545 11.9146 23.6276 16.4538 24.2279C16.761 24.2943 17.1797 24.4306 17.286 24.6936C17.3816 24.9326 17.348 25.3062 17.317 25.5479C17.317 25.5479 17.2063 26.2146 17.1824 26.3562C17.1408 26.5953 16.9929 27.2903 18.0005 26.8653C19.0089 26.4403 23.44 23.6621 25.4214 21.3815C26.7901 19.88 27.4462 18.3572 27.4462 16.6653H27.4453Z" fill="white"/>
<path d="M24.3022 19.1061H21.6488C21.5488 19.1061 21.4682 19.0255 21.4682 18.9255V18.9228V14.8078V14.8034C21.4682 14.7033 21.5488 14.6227 21.6488 14.6227H24.3022C24.4014 14.6227 24.4828 14.7042 24.4828 14.8034V15.4736C24.4828 15.5736 24.4023 15.6542 24.3022 15.6542H22.4988V16.35H24.3022C24.4014 16.35 24.4828 16.4315 24.4828 16.5307V17.2009C24.4828 17.3009 24.4023 17.3815 24.3022 17.3815H22.4988V18.0773H24.3022C24.4014 18.0773 24.4828 18.1588 24.4828 18.258V18.9282C24.4828 19.0282 24.4023 19.1088 24.3022 19.1088V19.1061Z" fill="#6C5E4F"/>
<path d="M14.4863 19.1061C14.5855 19.1061 14.6669 19.0256 14.6669 18.9255V18.2553C14.6669 18.1562 14.5855 18.0747 14.4863 18.0747H12.6829V14.8025C12.6829 14.7033 12.6014 14.6219 12.5023 14.6219H11.8321C11.732 14.6219 11.6515 14.7025 11.6515 14.8025V18.922V18.9255C11.6515 19.0256 11.732 19.1061 11.8321 19.1061H14.4854H14.4863Z" fill="#6C5E4F"/>
<path d="M16.0834 14.6227H15.4141C15.3144 14.6227 15.2335 14.7036 15.2335 14.8034V18.9255C15.2335 19.0252 15.3144 19.1061 15.4141 19.1061H16.0834C16.1832 19.1061 16.264 19.0252 16.264 18.9255V14.8034C16.264 14.7036 16.1832 14.6227 16.0834 14.6227Z" fill="#6C5E4F"/>
<path d="M20.6442 14.6227H19.974C19.8739 14.6227 19.7933 14.7033 19.7933 14.8034V17.2513L17.9076 14.7042C17.9031 14.698 17.8978 14.6918 17.8934 14.6856C17.8934 14.6856 17.8934 14.6856 17.8925 14.6847C17.889 14.6812 17.8854 14.6767 17.8819 14.6732C17.881 14.6723 17.8792 14.6714 17.8784 14.6706C17.8748 14.6679 17.8722 14.6652 17.8686 14.6626C17.8668 14.6617 17.8651 14.6599 17.8633 14.659C17.8606 14.6564 17.8571 14.6546 17.8536 14.6528C17.8518 14.652 17.85 14.6502 17.8483 14.6493C17.8447 14.6475 17.8421 14.6458 17.8385 14.644C17.8367 14.6431 17.835 14.6422 17.8332 14.6413C17.8297 14.6396 17.8261 14.6378 17.8226 14.6369C17.8208 14.6369 17.819 14.6351 17.8164 14.6351C17.8128 14.6343 17.8093 14.6325 17.8058 14.6316C17.804 14.6316 17.8013 14.6307 17.7996 14.6298C17.796 14.6298 17.7925 14.6281 17.7889 14.6272C17.7863 14.6272 17.7836 14.6272 17.781 14.6263C17.7774 14.6263 17.7748 14.6254 17.7712 14.6254C17.7677 14.6254 17.765 14.6254 17.7615 14.6254C17.7597 14.6254 17.7571 14.6254 17.7553 14.6254H17.0895C16.9904 14.6254 16.9089 14.706 16.9089 14.806V18.9282C16.9089 19.0273 16.9895 19.1088 17.0895 19.1088H17.7597C17.8598 19.1088 17.9403 19.0282 17.9403 18.9282V16.4802L19.8288 19.0309C19.842 19.0494 19.858 19.0645 19.8757 19.076C19.8757 19.076 19.8775 19.0769 19.8775 19.0778C19.881 19.0804 19.8845 19.0822 19.889 19.0849C19.8907 19.0857 19.8925 19.0866 19.8943 19.0875C19.8969 19.0893 19.9005 19.0902 19.9031 19.0919C19.9058 19.0937 19.9093 19.0946 19.912 19.0955C19.9138 19.0955 19.9155 19.0973 19.9173 19.0973C19.9217 19.099 19.9253 19.0999 19.9297 19.1008C19.9297 19.1008 19.9315 19.1008 19.9323 19.1008C19.9474 19.1043 19.9633 19.107 19.9793 19.107H20.645C20.7442 19.107 20.8257 19.0264 20.8257 18.9264V14.8042C20.8257 14.7051 20.7451 14.6236 20.645 14.6236L20.6442 14.6227Z" fill="#6C5E4F"/>
</svg>
