<svg preserveAspectRatio="none" width="100%" height="100%" overflow="visible" style="display: block;" viewBox="0 0 32 32" fill="none" xmlns="http://www.w3.org/2000/svg">
<path id="Vector" fill-rule="evenodd" clip-rule="evenodd" d="M16 0C7.16217 0 0 7.16217 0 16C0 24.8378 7.16217 32 16 32C24.8378 32 32 24.8378 32 16C32 7.16217 24.8355 0 16 0ZM25.8347 12.6935L15.2128 23.3154C14.9371 23.5911 14.5765 23.7278 14.2159 23.7278C13.8554 23.7278 13.4948 23.5911 13.219 23.3154L6.16527 16.2616C5.61379 15.7101 5.61379 14.8169 6.16527 14.2678C6.71675 13.7163 7.60996 13.7163 8.15908 14.2678L14.2136 20.3223L23.8386 10.6973C24.39 10.1458 25.2833 10.1458 25.8324 10.6973C26.3839 11.2488 26.3839 12.142 25.8324 12.6911L25.8347 12.6935Z" fill="var(--fill-0, #E17B4E)"/>
</svg>
