<svg preserveAspectRatio="none" width="100%" height="100%" overflow="visible" style="display: block;" viewBox="0 0 15.9289 18" fill="none" xmlns="http://www.w3.org/2000/svg">
<g id="Group 4">
<path id="Vector" fill-rule="evenodd" clip-rule="evenodd" d="M11.805 6.49853C12.9673 7.32891 14.3913 7.81711 15.9289 7.81711V4.85915C15.6376 4.85915 15.3478 4.82891 15.0631 4.76844V7.09661C13.5255 7.09661 12.1022 6.60767 10.9392 5.77803V11.8134C10.9392 14.8326 8.49011 17.2802 5.46947 17.2802C4.34262 17.2802 3.29469 16.9395 2.42448 16.3555C3.41784 17.3702 4.8028 18 6.33525 18C9.3559 18 11.805 15.5524 11.805 12.5332V6.49853ZM12.8736 3.51475C12.2799 2.86652 11.8898 2.02803 11.805 1.10104V0.720505H10.9842C11.1907 1.89823 11.8957 2.90487 12.8736 3.51475ZM4.33525 14.0391C4.00339 13.604 3.82419 13.0723 3.82492 12.5251C3.82492 11.1438 4.94513 10.0243 6.32714 10.0243C6.58451 10.0243 6.84041 10.0634 7.08598 10.1416V7.118C6.79911 7.07891 6.51003 7.06195 6.2202 7.06785V9.42109C5.97463 9.34292 5.71873 9.30384 5.46062 9.30384C4.07861 9.30384 2.9584 10.4233 2.9584 11.8046C2.95914 12.7817 3.51888 13.6276 4.33525 14.0391Z" fill="var(--fill-0, white)" fill-opacity="0.8"/>
<path id="Vector_2" fill-rule="evenodd" clip-rule="evenodd" d="M10.9394 5.77803C12.1016 6.60841 13.5256 7.09661 15.0633 7.09661V4.76844C14.2049 4.58555 13.4453 4.13717 12.8737 3.51401C11.8959 2.90413 11.1916 1.89823 10.9851 0.720505H8.82948V12.5332C8.82432 13.91 7.70633 15.0251 6.32727 15.0251C5.51459 15.0251 4.79261 14.6379 4.33538 14.0383C3.51901 13.6268 2.95928 12.781 2.95928 11.8046C2.95928 10.4233 4.07948 9.30384 5.46149 9.30384C5.72624 9.30384 5.9814 9.34513 6.22108 9.42109V7.06859C3.25352 7.1298 0.867095 9.5531 0.867095 12.5339C0.867095 14.0221 1.46149 15.3709 2.42609 16.3562C3.2963 16.9403 4.34423 17.281 5.47108 17.281C8.49172 17.281 10.9408 14.8333 10.9408 11.8142L10.9394 5.77803Z" fill="var(--fill-0, white)"/>
<path id="Vector_3" fill-rule="evenodd" clip-rule="evenodd" d="M15.0634 4.76917V4.13938C14.2891 4.14086 13.531 3.92404 12.8739 3.51401C13.455 4.15044 14.2205 4.58923 15.0634 4.76917ZM10.9845 0.720502C10.9646 0.60767 10.9499 0.494838 10.9395 0.380531V0H7.96312V11.8134C7.9587 13.1903 6.83997 14.3053 5.46091 14.3053C5.05605 14.3053 4.67404 14.2094 4.33555 14.0383C4.79277 14.6379 5.51475 15.0251 6.32743 15.0251C7.70649 15.0251 8.82448 13.91 8.82964 12.5332V0.720502H10.9845ZM6.2205 7.06858V6.39823C5.97198 6.36431 5.72124 6.34734 5.46976 6.34734C2.44838 6.34734 0 8.79498 0 11.8142C0 13.7072 0.96239 15.3754 2.42478 16.3562C1.46018 15.3709 0.865781 14.0221 0.865781 12.5339C0.865781 9.5531 3.25295 7.12979 6.2205 7.06858Z" fill="var(--fill-0, white)" fill-opacity="0.5"/>
</g>
</svg>
