<svg preserveAspectRatio="none" width="100%" height="100%" overflow="visible" style="display: block;" viewBox="0 0 21.8422 23.75" fill="none" xmlns="http://www.w3.org/2000/svg">
<g id="Group">
<path id="Vector" d="M17.7532 6.81934L20.1829 5.41699L20.4534 5.26074L20.6097 5.53223L21.2591 6.65527L21.4153 6.92676L21.1448 7.08301L18.7151 8.48438L20.3909 9.44824L20.6614 9.60449L20.5062 9.87598L19.8577 11L19.7015 11.2715L19.431 11.1152L16.7913 9.59473L12.8431 11.875L16.7913 14.1533L19.431 12.6348L19.7024 12.4785L19.8577 12.749L20.5062 13.874L20.6614 14.1445L20.3909 14.3008L18.7151 15.2646L21.1448 16.667L21.4153 16.8232L21.2591 17.0947L20.6097 18.2188L20.4534 18.4893L20.1829 18.333L17.7542 16.9307L17.7571 18.8633V19.1748L17.4446 19.1758L16.1468 19.1777H15.8343V18.8652L15.8304 15.8193L11.8831 13.54V18.0986L14.5179 19.625L14.7884 19.7812L14.6321 20.0518L13.9817 21.1748L13.8255 21.4453L13.555 21.2891L11.8831 20.3203V23.4375H9.95929V20.3203L8.28741 21.2891L8.0169 21.4453L7.85968 21.1748L7.21026 20.0518L7.05401 19.7812L7.32452 19.625L9.95929 18.0986V13.54L6.01104 15.8193L6.00811 18.8652L6.00714 19.1777H5.69464L4.39679 19.1758L4.08429 19.1748L4.08526 18.8623L4.08722 16.9307L1.65948 18.333L1.38897 18.4893L1.23272 18.2188L0.583309 17.0947L0.427059 16.8232L0.697567 16.667L3.12628 15.2646L1.4505 14.3008L1.17999 14.1445L1.33624 13.874L1.9837 12.749L2.13995 12.4785L2.41046 12.6348L5.05011 14.1533L8.99835 11.875L5.04913 9.5957L2.41143 11.1152L2.13995 11.2715L1.98468 11L1.33624 9.87598L1.17999 9.60449L1.45147 9.44922L3.12432 8.48438L0.697567 7.08301L0.427059 6.92676L0.583309 6.65527L1.23272 5.53223L1.38897 5.26074L1.65948 5.41699L4.08722 6.81836L4.08526 4.88672V4.57422H4.39776L5.69561 4.57227H6.00811V4.88477L6.01104 7.92969L9.95929 10.209V5.65039L7.32452 4.125L7.05401 3.96875L7.21026 3.69824L7.85968 2.57422L8.0169 2.30371L8.28741 2.46094L9.95929 3.42871V0.3125H11.8831V3.42871L13.555 2.46094L13.8255 2.30371L13.9817 2.57422L14.6321 3.69824L14.7884 3.96875L14.5179 4.125L11.8831 5.65039V10.209L15.8294 7.92969L15.8343 4.88477V4.57227H16.1468L17.4446 4.57422H17.7571V4.88672L17.7532 6.81934Z" fill="var(--fill-0, white)" stroke="var(--stroke-0, white)" stroke-width="0.625"/>
</g>
</svg>
