<svg preserveAspectRatio="none" width="100%" height="100%" overflow="visible" style="display: block;" viewBox="0 0 18.8923 18" fill="none" xmlns="http://www.w3.org/2000/svg">
<g id="Group">
<path id="Vector" d="M18.8914 7.66528C18.8914 3.43866 14.6542 0 9.4457 0C4.23724 0 0 3.43866 0 7.66528C0 11.4545 3.36075 14.6276 7.8999 15.2279C8.20711 15.2943 8.62588 15.4306 8.73212 15.6936C8.82773 15.9326 8.79409 16.3062 8.7631 16.5479C8.7631 16.5479 8.65244 17.2146 8.62853 17.3562C8.58692 17.5953 8.43907 18.2903 9.44659 17.8653C10.455 17.4403 14.8861 14.6621 16.8675 12.3815C18.2363 10.88 18.8923 9.35717 18.8923 7.66528H18.8914Z" fill="var(--fill-0, white)"/>
<g id="Group_2">
<path id="Vector_2" d="M15.7483 10.1062H13.095C12.9949 10.1062 12.9144 10.0256 12.9144 9.92556V9.9229V5.80784V5.80341C12.9144 5.70337 12.9949 5.6228 13.095 5.6228H15.7483C15.8475 5.6228 15.929 5.70425 15.929 5.80341V6.47361C15.929 6.57366 15.8484 6.65422 15.7483 6.65422H13.9449V7.3501H15.7483C15.8475 7.3501 15.929 7.43155 15.929 7.53071V8.20091C15.929 8.30095 15.8484 8.38152 15.7483 8.38152H13.9449V9.0774H15.7483C15.8475 9.0774 15.929 9.15885 15.929 9.25801V9.92821C15.929 10.0283 15.8484 10.1088 15.7483 10.1088V10.1062Z" fill="var(--fill-0, #6C5E4F)"/>
<path id="Vector_3" d="M5.93246 10.1062C6.03161 10.1062 6.11307 10.0256 6.11307 9.92556V9.25535C6.11307 9.1562 6.03161 9.07474 5.93246 9.07474H4.12902V5.80252C4.12902 5.70337 4.04757 5.62191 3.94841 5.62191H3.2782C3.17816 5.62191 3.0976 5.70248 3.0976 5.80252V9.92201V9.92556C3.0976 10.0256 3.17816 10.1062 3.2782 10.1062H5.93157H5.93246Z" fill="var(--fill-0, #6C5E4F)"/>
<path id="Vector_4" d="M7.52955 5.6228H6.86024C6.76049 5.6228 6.67963 5.70366 6.67963 5.80341V9.92556C6.67963 10.0253 6.76049 10.1062 6.86024 10.1062H7.52955C7.6293 10.1062 7.71016 10.0253 7.71016 9.92556V5.80341C7.71016 5.70366 7.6293 5.6228 7.52955 5.6228Z" fill="var(--fill-0, #6C5E4F)"/>
<path id="Vector_5" d="M12.0903 5.6228H11.4201C11.32 5.6228 11.2395 5.70337 11.2395 5.80341V8.25138L9.35371 5.70425C9.34928 5.69805 9.34397 5.69186 9.33954 5.68566C9.33954 5.68566 9.33954 5.68566 9.33866 5.68477C9.33511 5.68123 9.33157 5.67681 9.32803 5.67326C9.32715 5.67238 9.32537 5.67149 9.32449 5.67061C9.32095 5.66795 9.31829 5.6653 9.31475 5.66264C9.31298 5.66175 9.31121 5.65998 9.30944 5.6591C9.30678 5.65644 9.30324 5.65467 9.2997 5.6529C9.29793 5.65202 9.29616 5.65024 9.29439 5.64936C9.29085 5.64759 9.28819 5.64582 9.28465 5.64405C9.28288 5.64316 9.28111 5.64228 9.27934 5.64139C9.2758 5.63962 9.27225 5.63785 9.26871 5.63696C9.26694 5.63696 9.26517 5.63519 9.26252 5.63519C9.25897 5.63431 9.25543 5.63254 9.25189 5.63165C9.25012 5.63165 9.24746 5.63077 9.24569 5.62988C9.24215 5.62988 9.23861 5.62811 9.23507 5.62723C9.23241 5.62723 9.22976 5.62723 9.2271 5.62634C9.22356 5.62634 9.2209 5.62546 9.21736 5.62546C9.21382 5.62546 9.21117 5.62546 9.20762 5.62546C9.20585 5.62546 9.2032 5.62546 9.20143 5.62546H8.53565C8.43649 5.62546 8.35504 5.70602 8.35504 5.80606V9.92821C8.35504 10.0274 8.43561 10.1088 8.53565 10.1088H9.20585C9.3059 10.1088 9.38646 10.0283 9.38646 9.92821V7.48024L11.2749 10.0309C11.2882 10.0495 11.3041 10.0646 11.3218 10.0761C11.3218 10.0761 11.3236 10.0769 11.3236 10.0778C11.3271 10.0805 11.3307 10.0823 11.3351 10.0849C11.3369 10.0858 11.3386 10.0867 11.3404 10.0876C11.3431 10.0893 11.3466 10.0902 11.3493 10.092C11.3519 10.0938 11.3555 10.0947 11.3581 10.0955C11.3599 10.0955 11.3617 10.0973 11.3634 10.0973C11.3679 10.0991 11.3714 10.1 11.3758 10.1009C11.3758 10.1009 11.3776 10.1009 11.3785 10.1009C11.3935 10.1044 11.4095 10.1071 11.4254 10.1071H12.0912C12.1903 10.1071 12.2718 10.0265 12.2718 9.92644V5.80429C12.2718 5.70514 12.1912 5.62368 12.0912 5.62368L12.0903 5.6228Z" fill="var(--fill-0, #6C5E4F)"/>
</g>
</g>
</svg>
