<svg preserveAspectRatio="none" width="100%" height="100%" overflow="visible" style="display: block;" viewBox="0 0 32.1503 25.5577" fill="none" xmlns="http://www.w3.org/2000/svg">
<g id="Group 26">
<path id="Vector" fill-rule="evenodd" clip-rule="evenodd" d="M22.9992 0.861917C27.052 3.17961 29.3326 7.6167 31.39 12.3141C28.7005 12.3512 27.6841 9.33948 26.4819 7.6167C25.1681 5.7204 23.8172 3.84889 22.4786 2.20048C22.1688 1.35768 23.0488 1.50641 22.9992 0.874311V0.861917Z" fill="var(--fill-0, #6C5E4F)" stroke="var(--stroke-0, #6C5E4F)"/>
<path id="Vector_2" fill-rule="evenodd" clip-rule="evenodd" d="M25.7761 25.0059C23.0122 24.7333 21.5621 21.8206 19.5666 20.0979C13.6174 14.9667 6.35451 10.0587 0.529282 4.45652C0.442523 4.09709 0.55407 3.88639 0.789558 3.78724C1.04983 3.51457 1.48363 3.37823 2.02897 3.35344C7.8418 8.80685 14.9684 13.0952 21.0415 18.6725C22.8263 20.3086 25.7141 22.2049 25.7761 24.9935V25.0059Z" fill="var(--fill-0, #6C5E4F)" stroke="var(--stroke-0, #6C5E4F)"/>
</g>
</svg>
