<svg preserveAspectRatio="none" width="100%" height="100%" overflow="visible" style="display: block;" viewBox="0 0 23.5102 23.5102" fill="none" xmlns="http://www.w3.org/2000/svg">
<g id="Group">
<path id="Vector" d="M11.7552 0C5.26279 0 0 5.26284 0 11.7553C0 18.2474 5.26279 23.5102 11.7552 23.5102C18.2473 23.5102 23.5102 18.2474 23.5102 11.7553C23.5101 5.26284 18.2473 0 11.7552 0ZM11.7552 19.2481C7.61671 19.2481 4.26205 15.8938 4.26205 11.7553C4.26205 7.61675 7.61671 4.26214 11.7552 4.26214C15.8934 4.26214 19.248 7.6168 19.248 11.7553C19.248 15.8939 15.8934 19.2481 11.7552 19.2481Z" fill="var(--fill-0, white)"/>
<path id="Vector_2" d="M11.7552 12.4948C12.1555 12.4948 12.4796 12.164 12.4796 11.7553C12.4796 11.3467 12.1555 11.0154 11.7552 11.0154C11.3546 11.0154 11.0305 11.3467 11.0305 11.7553C11.0304 12.164 11.3546 12.4948 11.7552 12.4948Z" fill="var(--fill-0, white)"/>
<path id="Vector_3" d="M6.92112 8.97309C6.972 9.11156 7.08161 9.21867 7.21959 9.26428L9.80199 10.1216C10.0426 10.2005 10.306 10.1585 10.5105 10.0069C10.7145 9.85458 10.8361 9.61219 10.8361 9.35428V6.58397C10.8361 6.43641 10.7697 6.29634 10.6558 6.20512C10.5423 6.11269 10.3939 6.07936 10.2532 6.11269C10.2532 6.11269 10.2917 6.08297 10.0305 6.16669C8.81176 6.55903 7.76749 7.3545 7.05047 8.40103C6.9028 8.61605 6.95955 8.55455 6.95955 8.55455C6.88535 8.68031 6.87139 8.83425 6.92112 8.97309Z" fill="var(--fill-0, white)"/>
<path id="Vector_4" d="M9.74144 12.4238C9.66333 12.1778 9.47479 11.985 9.23427 11.9061L6.65297 11.0499C6.5154 11.0043 6.36502 11.0257 6.24453 11.107C6.12404 11.1892 6.04671 11.3228 6.03427 11.4704C6.03427 11.4704 6.01875 11.4236 6.01599 11.7029C6.00433 13.0073 6.42329 14.2662 7.17649 15.2865C7.33114 15.496 7.29073 15.4218 7.29073 15.4218C7.38592 15.5333 7.52505 15.5944 7.66887 15.5884C7.81379 15.5825 7.94787 15.5095 8.03259 15.3897L9.62908 13.1462C9.77753 12.938 9.81913 12.6686 9.74144 12.4238Z" fill="var(--fill-0, white)"/>
<path id="Vector_5" d="M12.3946 14.2492C12.2453 14.0409 12.0078 13.9171 11.7552 13.9171C11.5023 13.9171 11.2648 14.0409 11.1167 14.2492L9.52103 16.4902C9.43631 16.6096 9.40908 16.7628 9.44871 16.9056C9.48719 17.048 9.58784 17.1639 9.72193 17.2215C9.72193 17.2215 9.67298 17.2226 9.93297 17.3115C11.1447 17.7261 12.447 17.7078 13.6296 17.2916C13.8725 17.2064 13.7913 17.2226 13.7913 17.2226C13.925 17.1655 14.0252 17.0489 14.0637 16.9068C14.1025 16.764 14.0749 16.6117 13.9902 16.4922L12.3946 14.2492Z" fill="var(--fill-0, white)"/>
<path id="Vector_6" d="M16.8591 11.0491L14.2763 11.9061C14.0361 11.985 13.8469 12.1778 13.7695 12.4238C13.691 12.6686 13.7326 12.9379 13.8818 13.1458L15.4764 15.3873C15.5619 15.5075 15.696 15.5793 15.8409 15.5865C15.9855 15.5928 16.1246 15.5305 16.219 15.4187C16.219 15.4187 16.2051 15.4659 16.3678 15.2417C17.1284 14.1932 17.5151 12.9225 17.4929 11.6462C17.4886 11.3843 17.4778 11.4684 17.4778 11.4684C17.4653 11.3209 17.3884 11.1872 17.2676 11.1059C17.1471 11.025 16.9971 11.0031 16.8591 11.0491Z" fill="var(--fill-0, white)"/>
<path id="Vector_7" d="M13 10.007C13.2049 10.1581 13.4676 10.2006 13.7081 10.1216L16.2887 9.26433C16.4266 9.21905 16.5362 9.11156 16.5871 8.97314C16.6377 8.8343 16.6229 8.67994 16.5475 8.55342C16.5475 8.55342 16.5875 8.58117 16.4286 8.35425C15.6871 7.2914 14.623 6.52415 13.4268 6.15084C13.1808 6.07467 13.2558 6.11039 13.2558 6.11039C13.1147 6.07706 12.9667 6.11114 12.854 6.2032C12.7401 6.29405 12.674 6.43411 12.674 6.5813V9.35405C12.674 9.61219 12.7956 9.85462 13 10.007Z" fill="var(--fill-0, white)"/>
</g>
</svg>
