<svg preserveAspectRatio="none" width="100%" height="100%" overflow="visible" style="display: block;" viewBox="0 0 32.2098 43.1133" fill="none" xmlns="http://www.w3.org/2000/svg">
<g id="Group 27">
<path id="Vector" fill-rule="evenodd" clip-rule="evenodd" d="M31.6111 0.76356C28.5175 8.63201 22.0479 14.4022 17.7841 21.4905C14.6099 26.7765 11.4087 32.1567 8.42271 37.6444C7.52154 39.3123 7.06422 42.1099 4.67005 42.5C6.48585 34.6584 11.8391 28.3637 16.0222 21.3022C18.0666 17.8321 20.0438 14.3215 22.4245 10.9858C24.8994 7.51563 28.1678 4.51621 29.5128 0.602156C30.3602 0.481103 31.1672 0.400401 31.6111 0.76356Z" fill="var(--fill-0, #6C5E4F)" stroke="var(--stroke-0, #6C5E4F)"/>
<path id="Vector_2" fill-rule="evenodd" clip-rule="evenodd" d="M6.00236 6.50694C6.39242 6.41279 6.62107 6.53384 6.72867 6.7894C7.19944 10.2596 5.30294 14.4023 4.63042 18.4643C3.97136 22.3918 4.21348 27.5702 0.716387 29.2649C2.43803 21.6386 2.94913 13.0035 6.01581 6.50694H6.00236Z" fill="var(--fill-0, #6C5E4F)" stroke="var(--stroke-0, #6C5E4F)"/>
</g>
</svg>
