<svg preserveAspectRatio="none" width="100%" height="100%" overflow="visible" style="display: block;" viewBox="0 0 22.843 25" fill="none" xmlns="http://www.w3.org/2000/svg">
<g id="Group">
<path id="Vector" d="M18.6264 7.25098L21.3422 5.68359L21.559 5.55859L21.684 5.77539L22.3764 6.97461L22.5014 7.19141L22.2846 7.31641L19.5688 8.88379L21.4809 9.98438L21.6977 10.1094L21.5727 10.3262L20.8813 11.5254L20.7563 11.7422L20.5405 11.6172L17.6831 9.97168L13.3051 12.5L17.6831 15.0273L20.5405 13.3818L20.7573 13.2578L20.8823 13.4746L21.5727 14.6738L21.6977 14.8906L21.4809 15.0156L19.5678 16.1152L22.2846 17.6836L22.5014 17.8086L22.3764 18.0254L21.684 19.2246L21.559 19.4414L21.3422 19.3164L18.6274 17.748L18.6293 19.9541L18.6303 20.2041H18.3803L16.9956 20.2061H16.7456V19.9561L16.7407 16.6592L12.3637 14.1318V19.1875L15.2163 20.8379L15.4331 20.9639L15.3081 21.1797L14.6147 22.3779L14.4897 22.5947L14.2729 22.4697L12.3637 21.3643V24.75H10.479V21.3643L8.56977 22.4697L8.35395 22.5947L8.22895 22.3779L7.53559 21.1797L7.41059 20.9639L7.62641 20.8379L10.479 19.1875V14.1309L6.10005 16.6592L6.09712 19.9561V20.2061H5.84712L4.46235 20.2041H4.21235L4.21333 19.9541L4.21528 17.748L1.50044 19.3164L1.28364 19.4414L1.15864 19.2246L0.466256 18.0254L0.341256 17.8086L0.558053 17.6836L3.27387 16.1152L1.36176 15.0156L1.14497 14.8906L1.26997 14.6738L1.9604 13.4746L2.0854 13.2578L2.30219 13.3818L5.15864 15.0273L9.53559 12.5L5.15864 9.97168L2.30219 11.6172L2.0854 11.7422L1.96137 11.5254L1.26997 10.3252L1.14497 10.1094L1.36176 9.98438L3.2729 8.88281L0.558053 7.31641L0.341256 7.19141L0.466256 6.97461L1.15864 5.77539L1.28364 5.55859L1.50044 5.68359L4.21528 7.25098L4.21333 5.0459V4.7959H4.46333L5.84712 4.79395H6.09712L6.09809 5.04395L6.10102 8.33984L10.479 10.8682V5.8125L7.62641 4.16113L7.41059 4.03613L7.53559 3.81934L8.22895 2.62109L8.35395 2.4043L8.56977 2.53027L10.479 3.63477V0.25H12.3637V3.63477L14.2729 2.53027L14.4897 2.4043L14.6147 2.62109L15.3081 3.81934L15.4331 4.03613L15.2163 4.16113L12.3637 5.8125V10.8672L16.7407 8.33984L16.7456 5.04297V4.79395H16.9956L18.3803 4.7959H18.6303L18.6293 5.0459L18.6264 7.25098Z" fill="var(--fill-0, white)" stroke="var(--stroke-0, white)" stroke-width="0.5"/>
</g>
</svg>
