<svg preserveAspectRatio="none" width="100%" height="100%" overflow="visible" style="display: block;" viewBox="0 0 22.0408 22.0409" fill="none" xmlns="http://www.w3.org/2000/svg">
<g id="Group">
<path id="Vector" d="M11.0205 0C4.93387 0 0 4.93391 0 11.0206C0 17.1069 4.93387 22.0408 11.0205 22.0408C17.1069 22.0408 22.0408 17.1069 22.0408 11.0206C22.0407 4.93391 17.1069 0 11.0205 0ZM11.0205 18.0451C7.14066 18.0451 3.99567 14.9005 3.99567 11.0206C3.99567 7.14071 7.14066 3.99576 11.0205 3.99576C14.9001 3.99576 18.045 7.14075 18.045 11.0206C18.045 14.9005 14.9001 18.0451 11.0205 18.0451Z" fill="var(--fill-0, white)"/>
<path id="Vector_2" d="M11.0193 11.7139C11.3946 11.7139 11.6985 11.4037 11.6985 11.0206C11.6985 10.6375 11.3946 10.327 11.0193 10.327C10.6437 10.327 10.3398 10.6375 10.3398 11.0206C10.3398 11.4037 10.6437 11.7139 11.0193 11.7139Z" fill="var(--fill-0, white)"/>
<path id="Vector_3" d="M6.48844 8.41227C6.53613 8.54209 6.63889 8.6425 6.76825 8.68526L9.18925 9.48898C9.41478 9.56298 9.6618 9.52356 9.85345 9.38149C10.0448 9.23866 10.1587 9.01142 10.1587 8.76963V6.17247C10.1587 6.03413 10.0965 5.90282 9.9897 5.8173C9.88332 5.73064 9.74415 5.6994 9.61225 5.73064C9.61225 5.73064 9.64832 5.70278 9.40346 5.78127C8.26091 6.14909 7.2819 6.89484 6.6097 7.87596C6.47126 8.07754 6.52447 8.01988 6.52447 8.01988C6.4549 8.13779 6.44181 8.28211 6.48844 8.41227Z" fill="var(--fill-0, white)"/>
<path id="Vector_4" d="M9.1315 11.6473C9.05828 11.4167 8.88152 11.2359 8.65603 11.1619L6.23606 10.3593C6.10709 10.3166 5.96611 10.3366 5.85315 10.4128C5.74019 10.4898 5.66769 10.6152 5.65603 10.7535C5.65603 10.7535 5.64148 10.7096 5.63889 10.9715C5.62796 12.1944 6.02073 13.3745 6.72686 14.3311C6.87185 14.5275 6.83396 14.458 6.83396 14.458C6.9232 14.5625 7.05364 14.6198 7.18847 14.6141C7.32433 14.6086 7.45003 14.5401 7.52945 14.4278L9.02616 12.3245C9.16534 12.1293 9.20434 11.8768 9.1315 11.6473Z" fill="var(--fill-0, white)"/>
<path id="Vector_5" d="M11.6203 13.3586C11.4804 13.1634 11.2577 13.0473 11.0209 13.0473C10.7838 13.0473 10.5611 13.1634 10.4223 13.3586L8.92635 15.4596C8.84693 15.5716 8.8214 15.7151 8.85855 15.849C8.89462 15.9825 8.98899 16.0912 9.11469 16.1451C9.11469 16.1451 9.0688 16.1462 9.31254 16.2296C10.4485 16.6182 11.6694 16.6011 12.7782 16.2109C13.0058 16.131 12.9297 16.1462 12.9297 16.1462C13.055 16.0927 13.149 15.9833 13.1851 15.8502C13.2215 15.7163 13.1956 15.5735 13.1162 15.4615L11.6203 13.3586Z" fill="var(--fill-0, white)"/>
<path id="Vector_6" d="M15.8041 10.3586L13.3827 11.162C13.1576 11.236 12.9801 11.4167 12.9076 11.6473C12.834 11.8768 12.873 12.1293 13.0129 12.3242L14.5078 14.4256C14.5879 14.5383 14.7136 14.6056 14.8495 14.6124C14.9851 14.6183 15.1155 14.5599 15.204 14.455C15.204 14.455 15.1909 14.4993 15.3435 14.2891C16.0566 13.3062 16.419 12.1148 16.3983 10.9183C16.3943 10.6728 16.3841 10.7517 16.3841 10.7517C16.3724 10.6133 16.3003 10.488 16.187 10.4118C16.0741 10.3359 15.9335 10.3154 15.8041 10.3586Z" fill="var(--fill-0, white)"/>
<path id="Vector_7" d="M12.1865 9.38156C12.3785 9.52329 12.6248 9.56306 12.8504 9.48905L15.2696 8.68534C15.399 8.64289 15.5017 8.54212 15.5494 8.41235C15.5968 8.28218 15.5829 8.13747 15.5123 8.01886C15.5123 8.01886 15.5498 8.04488 15.4008 7.83214C14.7056 6.83572 13.7081 6.11643 12.5866 5.76645C12.3559 5.69503 12.4263 5.72852 12.4263 5.72852C12.294 5.69728 12.1553 5.72922 12.0496 5.81553C11.9428 5.9007 11.8809 6.03201 11.8809 6.17V8.76945C11.8809 9.01146 11.9949 9.23874 12.1865 9.38156Z" fill="var(--fill-0, white)"/>
</g>
</svg>
